<svg id="Layer_1" data-name="Layer 1" xmlns="http://www.w3.org/2000/svg" viewBox="0 0 54.46 42.05"><title>noun_Shipping_4160556</title><path d="M57.9,23.13l-.3-.31h0l-9.27-9.55h-7.7V3.59H3.44V32h.71v8.07H8.26a6.55,6.55,0,0,0,13,0h19.2a6.55,6.55,0,0,0,13,0H57.9V23.13Zm-2,.8v2.69H46.63V20.23H52.3ZM28,5.59v7.68H15.74V5.59Zm-22.61,0h8.3v9.68H30V5.59h8.59V30H5.44ZM6.15,32H37.91v6.07H21.21a6.55,6.55,0,0,0-13,0H6.15Zm8.59,11.63a4.56,4.56,0,1,1,4.56-4.56A4.57,4.57,0,0,1,14.74,43.64Zm32.16,0a4.56,4.56,0,1,1,4.56-4.56A4.57,4.57,0,0,1,46.9,43.64Zm6.48-5.56a6.55,6.55,0,0,0-13,0H39.9V32h.72V15.26h6.85l2.88,3H44.63V28.62H55.9v9.45Z" transform="translate(-3.44 -3.59)"/><rect x="25.94" y="21.51" width="7.06" height="2"/></svg>