<?xml version="1.0" encoding="UTF-8"?>
<svg width="12px" height="12px" viewBox="0 0 12 12" version="1.1" xmlns="http://www.w3.org/2000/svg" xmlns:xlink="http://www.w3.org/1999/xlink">
    <title>Fill 1</title>
    <g id="Symbols" stroke="none" stroke-width="1" fill="none" fill-rule="evenodd">
        <g id="Navigation" transform="translate(-951.000000, -6.000000)" fill="#FFFFFF">
            <g id="Group-3" transform="translate(951.000000, 6.000000)">
                <path d="M3.22991082,8.86379245 L1.35514331,8.86379245 C2.04702179,9.98492942 3.13434117,10.8370851 4.42310077,11.2245326 C4.15699366,10.9349485 3.92121703,10.5732545 3.71977681,10.1680656 C3.52692069,9.77775658 3.36210597,9.34051889 3.22991082,8.86379245 L3.22991082,8.86379245 Z M5.72731175,8.86379245 L3.79703372,8.86379245 C3.91206066,9.25581839 4.04940627,9.61293399 4.20620917,9.92941625 C4.62740236,10.7792827 5.16305022,11.2977871 5.72731175,11.4248378 L5.72731175,8.86379245 Z M8.20296628,8.86379245 L6.27268825,8.86379245 L6.27268825,11.4248378 C6.83694978,11.2977871 7.37259764,10.7792827 7.79379083,9.92941625 C7.95116601,9.61293399 8.08793934,9.25581839 8.20296628,8.86379245 L8.20296628,8.86379245 Z M10.6448567,8.86379245 L8.76951691,8.86379245 C8.63789403,9.34051889 8.47307931,9.77775658 8.27965091,10.1680656 C8.07878297,10.5732545 7.84300634,10.9349485 7.57632696,11.2245326 C8.86508656,10.8370851 9.95297821,9.98492942 10.6448567,8.86379245 L10.6448567,8.86379245 Z M2.86766179,6.27298741 L0.553960609,6.27298741 C0.589441557,7.00095383 0.767990844,7.69286532 1.0609948,8.31838993 L3.09828795,8.31838993 C2.96323144,7.68370851 2.88425771,6.99523083 2.86766179,6.27298741 L2.86766179,6.27298741 Z M5.72731175,6.27298741 L3.41303829,6.27298741 C3.4302065,7.00209844 3.5160475,7.69229302 3.65625447,8.31838993 L5.72731175,8.31838993 L5.72731175,6.27298741 Z M8.58638943,6.27298741 L6.27268825,6.27298741 L6.27268825,8.31838993 L8.34374553,8.31838993 C8.4839525,7.69229302 8.5697935,7.00209844 8.58638943,6.27298741 L8.58638943,6.27298741 Z M11.4460394,6.27298741 L9.13176594,6.27298741 C9.11631456,6.99523083 9.03676856,7.68370851 8.90228432,8.31838993 L10.9384329,8.31838993 C11.2320092,7.69286532 11.4099862,7.00095383 11.4460394,6.27298741 L11.4460394,6.27298741 Z M3.09828795,3.68161007 L1.0609948,3.68161007 C0.766846297,4.30827928 0.59001383,4.99790156 0.553960609,5.72758489 L2.86766179,5.72758489 C2.88425771,5.00591377 2.96380371,4.31571919 3.09828795,3.68161007 L3.09828795,3.68161007 Z M5.72731175,3.68161007 L3.65625447,3.68161007 C3.5160475,4.30713468 3.43077877,4.99904617 3.41303829,5.72758489 L5.72731175,5.72758489 L5.72731175,3.68161007 Z M8.34374553,3.68161007 L6.27268825,3.68161007 L6.27268825,5.72758489 L8.58638943,5.72758489 C8.56922123,4.99904617 8.4839525,4.30713468 8.34374553,3.68161007 L8.34374553,3.68161007 Z M10.9384329,3.68161007 L8.90228432,3.68161007 C9.03619629,4.31571919 9.11574229,5.00591377 9.13176594,5.72758489 L11.4460394,5.72758489 C11.4099862,4.99790156 11.2331537,4.30827928 10.9384329,3.68161007 L10.9384329,3.68161007 Z M4.42310077,0.780045784 C3.13434117,1.16749332 2.04702179,2.01507058 1.35514331,3.13620755 L3.22991082,3.13620755 C3.36210597,2.65890881 3.52692069,2.21823731 3.71977681,1.82792827 C3.92121703,1.42273941 4.15699366,1.06848531 4.42310077,0.780045784 L4.42310077,0.780045784 Z M7.57632696,0.780045784 C7.84300634,1.06848531 8.07878297,1.42273941 8.27965091,1.82792827 C8.47307931,2.21823731 8.63789403,2.65890881 8.76951691,3.13620755 L10.6448567,3.13620755 C9.95297821,2.01507058 8.86508656,1.16749332 7.57632696,0.780045784 L7.57632696,0.780045784 Z M5.72731175,0.579168256 C5.16305022,0.706219 4.62740236,1.22128958 4.20620917,2.07058375 C4.04940627,2.3859214 3.91206066,2.74589851 3.79703372,3.13620755 L5.72731175,3.13620755 L5.72731175,0.579168256 Z M6.27268825,0.579168256 L6.27268825,3.13620755 L8.20296628,3.13620755 C8.08793934,2.74589851 7.95059373,2.3859214 7.79379083,2.07058375 C7.37259764,1.22128958 6.83694978,0.706219 6.27268825,0.579168256 L6.27268825,0.579168256 Z M5.99971386,0 C9.31031523,0 12,2.68924075 12,6 C12,9.31075925 9.31031523,12 5.99971386,12 C2.68968477,12 0,9.31075925 0,6 C0,2.68924075 2.68968477,0 5.99971386,0 L5.99971386,0 Z" id="Fill-1"></path>
            </g>
        </g>
    </g>
</svg>