<?xml version="1.0" encoding="utf-8"?>
<!-- Generator: Adobe Illustrator 21.0.0, SVG Export Plug-In . SVG Version: 6.00 Build 0)  -->
<svg version="1.1" id="Layer_1" xmlns="http://www.w3.org/2000/svg" xmlns:xlink="http://www.w3.org/1999/xlink" x="0px" y="0px"
	 viewBox="0 0 38 24" style="enable-background:new 0 0 38 24;" xml:space="preserve">
<style type="text/css">
	.st0{opacity:7.000000e-02;enable-background:new    ;}
	.st1{fill:#FFFFFF;}
	.st2{fill:#231F20;}
	.st3{fill:none;}
	.st4{fill:#3758A5;}
	.st5{fill:#2BB46E;}
	.st6{fill:#24B57C;}
	.st7{fill:#F6921E;}
	.st8{fill:#0071BB;}
</style>
<title  id="pi-master">Mastercard</title>
<path class="st0" d="M35,0H3C1.3,0,0,1.3,0,3v18c0,1.7,1.4,3,3,3h32c1.7,0,3-1.3,3-3V3C38,1.3,36.6,0,35,0z"/>
<path class="st1" d="M35,1c1.1,0,2,0.9,2,2v18c0,1.1-0.9,2-2,2H3c-1.1,0-2-0.9-2-2V3c0-1.1,0.9-2,2-2H35"/>
<g>
	<g>
		<g>
			<path class="st2" d="M33.3,9.2c-0.1,0.1-0.4,0.2-0.6,0.3c-0.1-0.1-0.3-0.2-0.5-0.2l-0.3,0.3c0.3,0.1,0.4,0.1,0.6,0.2l-0.9,0v2.4
				H32v-0.8h0.6v0.8h0.3v-0.8h0.6v0.8h0.4v-0.8V9.7l-0.8,0c0,0-0.1-0.1-0.1-0.1c0.3-0.1,0.6-0.3,0.9-0.5v0V8.8v0l0,0h-2.5v0v0.3v0
				L33.3,9.2L33.3,9.2z M32.6,11H32v-0.3h0.6V11z M32.6,10.3l-0.6,0V10h0.6L32.6,10.3z M33.6,11h-0.6v-0.3h0.6V11z M33.6,10v0.3
				h-0.6V10H33.6z"/>
			<path class="st2" d="M20.8,12.5l0.3,0.2c0.8-1.4,0.9-2.6,0.9-3.1h-0.4C21.7,10.1,21.6,11.2,20.8,12.5z"/>
			<path class="st2" d="M24,8.7h-2.1v0.4h1.8c0.1,0.8,0.4,2.4,1.1,3.6l0.3-0.2c-0.7-1.3-1-2.9-1-3.6V8.7z"/>
			<rect x="25.8" y="8.8" transform="matrix(0.7069 -0.7073 0.7073 0.7069 1.0921 21.0985)" class="st2" width="0.3" height="0.9"/>
			<path class="st2" d="M28.2,12.3v-0.5h1.2v-0.3h-1.2v-0.2h0.9v-0.3h-0.9v-0.2h1v-0.3h-0.7l0.3-0.4h0.6V9.6h-1.2V9.3h1V9h-1V8.6
				h-0.3V9h-1v0.3h1v0.2h-1.2v0.3h0.5l0.3,0.4h-0.7v0.3h1.1v0.2H27v0.3h0.9v0.2h-1.2v0.3h1.2v0.5l-0.1,0c-0.5,0-0.9-0.1-1.3-0.3
				v-1.3v-0.2v-0.1h-1v0.3h0.7v1.2l-0.6,0.6l0.2,0.2l0.5-0.5l0,0c0.5,0.4,1.2,0.4,1.9,0.4h1.3l0.2-0.4l-0.7,0L28.2,12.3z M27.6,9.9
				h0.8l-0.3,0.4h-0.3L27.6,9.9z"/>
			<rect x="30.6" y="8.8" transform="matrix(0.7069 -0.7073 0.7073 0.7069 2.4893 24.4704)" class="st2" width="0.3" height="0.9"/>
			<path class="st2" d="M33.7,12.3l-1.2,0c-0.5,0-0.9-0.1-1.3-0.3v-1.3v-0.2v-0.1h-1v0.3h0.7v1.2l-0.6,0.6l0.2,0.2l0.5-0.5l0,0
				c0.5,0.4,1.2,0.4,1.9,0.4h1.3l0.2-0.4L33.7,12.3z"/>
		</g>
		<g>
			<path class="st2" d="M17.8,13.5C17.8,13.5,17.8,13.5,17.8,13.5c-0.1-0.1-0.1-0.1-0.1-0.1c0,0,0,0,0,0C17.4,13.2,17,13,16.5,13
				c-0.5,0-0.9,0.1-1.1,0.4c0,0,0,0,0,0c0,0-0.1,0.1-0.1,0.1c0,0,0,0,0,0c-0.4,0.4-0.5,0.9-0.5,1.5c0,0.6,0.2,1.1,0.5,1.5
				c0,0,0,0,0,0c0,0,0.1,0.1,0.1,0.1c0,0,0,0,0,0c0.3,0.2,0.7,0.4,1.1,0.4c0.5,0,0.9-0.1,1.1-0.4c0,0,0,0,0,0c0,0,0.1-0.1,0.1-0.1
				c0,0,0,0,0,0c0.4-0.4,0.5-0.9,0.5-1.5C18.4,14.5,18.2,13.9,17.8,13.5z M16.5,16.6c-0.4,0-0.8-0.2-1-0.5c-0.2-0.3-0.3-0.7-0.3-1.1
				c0-0.4,0.1-0.8,0.3-1.1c0.2-0.3,0.6-0.5,1-0.5c0.4,0,0.8,0.2,1,0.5c0.2,0.3,0.3,0.7,0.3,1.1c0,0.4-0.1,0.8-0.3,1.1
				C17.3,16.5,17,16.6,16.5,16.6z"/>
			<path class="st2" d="M20,16.6c-0.3,0-0.5-0.1-0.6-0.3c-0.1-0.2-0.2-0.4-0.2-0.7c0-0.4,0.1-1.1,0.9-1.1c0.4,0,0.6,0.2,0.7,0.6h0.5
				c-0.1-0.6-0.5-0.9-1.2-0.9c-0.8,0-1.3,0.6-1.3,1.5c0,0.9,0.5,1.4,1.3,1.4c0.7,0,1.1-0.4,1.2-1.1h-0.5
				C20.7,16.4,20.4,16.6,20,16.6z"/>
			<path class="st2" d="M22.3,13.3h-0.4v0.8h-0.5v0.4h0.5v1.8c0,0.5,0.2,0.6,0.7,0.6h0.3v-0.4h-0.2c-0.3,0-0.4,0-0.4-0.3v-1.7h0.6
				v-0.4h-0.6V13.3z"/>
			<path class="st2" d="M23.1,15.6c0,0.9,0.5,1.4,1.3,1.4c0.8,0,1.3-0.6,1.3-1.4c0-0.9-0.5-1.5-1.3-1.5
				C23.6,14.1,23.1,14.7,23.1,15.6z M25.3,15.6c0,0.6-0.4,1.1-0.9,1.1c-0.5,0-0.9-0.4-0.9-1.1c0-0.6,0.3-1.1,0.9-1.1
				C24.9,14.5,25.3,14.9,25.3,15.6z"/>
			<path class="st2" d="M26.7,14.6L26.7,14.6L26.7,14.6l0-0.4h-0.4V18h0.4v-1.4h0l0,0c0.2,0.3,0.6,0.4,0.9,0.4
				c0.8,0,1.3-0.6,1.3-1.4c0-0.7-0.3-1.5-1.3-1.5C27.1,14.1,26.8,14.3,26.7,14.6z M28.4,15.5c0,0.2,0,0.5-0.2,0.7
				c-0.1,0.2-0.4,0.3-0.7,0.3c-0.3,0-0.5-0.1-0.7-0.3c-0.1-0.2-0.2-0.4-0.2-0.7c0-0.5,0.2-1.1,0.9-1.1C28.1,14.5,28.4,15,28.4,15.5z
				"/>
			<path class="st2" d="M29.7,16.1v-1.9h-0.4V16c0,0.3,0.1,0.6,0.2,0.7c0.2,0.2,0.4,0.3,0.8,0.3c0.4,0,0.7-0.2,0.9-0.5l0,0h0V17h0.4
				v-2.8h-0.4v1.6c0,0.6-0.3,0.9-0.8,0.9C30,16.6,29.7,16.4,29.7,16.1z"/>
			<path class="st2" d="M34.1,15.6c-0.2-0.1-0.4-0.2-0.6-0.2c-0.1,0-0.1,0-0.2,0c-0.4-0.1-0.7-0.2-0.7-0.4c0-0.3,0.4-0.4,0.6-0.4
				c0.2,0,0.6,0,0.7,0.5h0.4c0-0.6-0.4-0.9-1.1-0.9c-0.3,0-0.5,0.1-0.7,0.2c-0.2,0.1-0.3,0.3-0.3,0.6c0,0.5,0.5,0.7,0.9,0.8
				c0,0,0.1,0,0.1,0c0.4,0.1,0.8,0.2,0.8,0.5c0,0.3-0.4,0.4-0.7,0.4c-0.3,0-0.7-0.1-0.8-0.5H32c0,0.8,0.8,0.9,1.2,0.9
				c0.3,0,1.2-0.1,1.2-0.9C34.4,15.9,34.3,15.7,34.1,15.6z"/>
		</g>
	</g>
	<g>
		<path class="st3" d="M5.3,16.1C5.3,16.1,5.3,16.2,5.3,16.1C5.3,16.2,5.3,16.1,5.3,16.1z"/>
		<path class="st3" d="M5.3,16.1C5.3,16.1,5.3,16.1,5.3,16.1C5.3,16.1,5.3,16.1,5.3,16.1z"/>
		<path class="st3" d="M5.4,16.2C5.4,16.2,5.4,16.2,5.4,16.2C5.4,16.2,5.4,16.2,5.4,16.2z"/>
		<path class="st3" d="M5.4,16.2C5.4,16.2,5.4,16.2,5.4,16.2C5.4,16.2,5.4,16.2,5.4,16.2z"/>
		<path class="st3" d="M5.3,16.1C5.3,16.1,5.3,16.1,5.3,16.1C5.3,16.1,5.3,16.1,5.3,16.1z"/>
		<path class="st3" d="M5.7,16.2C5.7,16.2,5.7,16.2,5.7,16.2c-0.1,0-0.2,0-0.2,0C5.5,16.2,5.6,16.2,5.7,16.2
			C5.7,16.2,5.7,16.2,5.7,16.2z"/>
		<path class="st3" d="M5.4,16.2C5.4,16.2,5.4,16.2,5.4,16.2C5.4,16.2,5.4,16.2,5.4,16.2z"/>
		<path class="st3" d="M5.4,16.2C5.4,16.2,5.4,16.2,5.4,16.2C5.4,16.2,5.4,16.2,5.4,16.2z"/>
		<path class="st3" d="M5.2,16.1C5.2,16.1,5.2,16.1,5.2,16.1C5.2,16.1,5.2,16.1,5.2,16.1z"/>
		<path class="st3" d="M5.2,16.1C5.2,16.1,5.2,16.1,5.2,16.1C5.2,16.1,5.2,16.1,5.2,16.1z"/>
		<path class="st3" d="M5.2,16.1C5.2,16.1,5.2,16.1,5.2,16.1C5.2,16.1,5.2,16.1,5.2,16.1z"/>
		<path class="st3" d="M5.2,16.1C5.2,16.1,5.2,16.1,5.2,16.1C5.2,16.1,5.2,16.1,5.2,16.1z"/>
		<path class="st3" d="M5.2,16.1C5.2,16.1,5.2,16.1,5.2,16.1C5.2,16.1,5.2,16.1,5.2,16.1z"/>
		<path class="st3" d="M5.2,16.1C5.2,16.1,5.2,16.1,5.2,16.1C5.2,16.1,5.2,16.1,5.2,16.1z"/>
		<path class="st3" d="M5.2,16.1C5.2,16.1,5.2,16.1,5.2,16.1C5.2,16.1,5.2,16.1,5.2,16.1z"/>
		<path class="st3" d="M5.7,16.2C5.7,16.2,5.7,16.2,5.7,16.2C5.7,16.2,5.7,16.2,5.7,16.2C5.7,16.2,5.7,16.2,5.7,16.2z"/>
		<path class="st3" d="M7.1,16.1C7.1,16.1,7.1,16.1,7.1,16.1C7.1,16.1,7.1,16.1,7.1,16.1z"/>
		<polygon class="st3" points="5.8,16.2 5.8,16.2 5.8,16.2 		"/>
		<path class="st3" d="M5.7,16.2C5.7,16.2,5.7,16.2,5.7,16.2C5.7,16.2,5.7,16.2,5.7,16.2L5.7,16.2C5.7,16.2,5.7,16.2,5.7,16.2
			C5.7,16.2,5.7,16.2,5.7,16.2z"/>
		<path class="st4" d="M5.2,16.1C5.2,16.1,5.2,16.1,5.2,16.1C5.2,16.1,5.2,16.1,5.2,16.1z"/>
		<path class="st4" d="M5.2,16.1C5.2,16.1,5.2,16.1,5.2,16.1C5.2,16.1,5.2,16.1,5.2,16.1z"/>
		<path class="st4" d="M5.1,16.1C5.1,16.1,5.1,16.1,5.1,16.1C5.1,16.1,5.1,16.1,5.1,16.1z"/>
		<path class="st4" d="M5.2,16.1C5.2,16.1,5.2,16.1,5.2,16.1C5.2,16.1,5.2,16.1,5.2,16.1z"/>
		<polygon class="st4" points="5.7,16.2 5.7,16.2 5.7,16.2 		"/>
		<path class="st4" d="M5.2,16.1C5.2,16.1,5.2,16.1,5.2,16.1C5.2,16.1,5.2,16.1,5.2,16.1z"/>
		<path class="st4" d="M5.2,16.1C5.2,16.1,5.2,16.1,5.2,16.1C5.2,16.1,5.2,16.1,5.2,16.1z"/>
		<polygon class="st4" points="5.8,16.2 5.8,16.2 5.8,16.2 		"/>
		<path class="st4" d="M5.2,16.1C5.2,16.1,5.2,16.1,5.2,16.1C5.2,16.1,5.2,16.1,5.2,16.1z"/>
		<path class="st4" d="M7.1,16.1C7.1,16.1,7.1,16.1,7.1,16.1C7.1,16.1,7.1,16.1,7.1,16.1z"/>
		<path class="st4" d="M5.4,16.2C5.4,16.2,5.4,16.2,5.4,16.2C5.4,16.2,5.4,16.2,5.4,16.2z"/>
		<path class="st4" d="M5.4,16.2C5.4,16.2,5.4,16.2,5.4,16.2C5.4,16.2,5.4,16.2,5.4,16.2z"/>
		<path class="st4" d="M5.4,16.2L5.4,16.2L5.4,16.2z"/>
		<path class="st4" d="M5.4,16.2L5.4,16.2L5.4,16.2z"/>
		<path class="st4" d="M5.4,16.2C5.4,16.2,5.4,16.2,5.4,16.2C5.4,16.2,5.4,16.2,5.4,16.2z"/>
		<polygon class="st4" points="5.7,16.2 5.7,16.2 5.7,16.2 		"/>
		<path class="st4" d="M5.2,16.1C5.2,16.1,5.3,16.1,5.2,16.1C5.3,16.1,5.2,16.1,5.2,16.1z"/>
		<path class="st4" d="M5.3,16.1C5.3,16.1,5.3,16.1,5.3,16.1C5.3,16.1,5.3,16.1,5.3,16.1z"/>
		<polygon class="st4" points="7.2,16.1 7.2,16.1 7.2,16.1 		"/>
		<path class="st4" d="M5.3,16.1C5.3,16.1,5.3,16.1,5.3,16.1C5.3,16.1,5.3,16.1,5.3,16.1z"/>
		<g>
			<ellipse transform="matrix(0.2629 -0.9648 0.9648 0.2629 7.9883 22.5705)" class="st5" cx="18.8" cy="6.1" rx="0" ry="0"/>
			<polygon class="st5" points="18.8,6.1 18.8,6.1 18.8,6.1 			"/>
			<path class="st6" d="M14.2,9.6C14.2,9.6,14.2,9.6,14.2,9.6C14.2,9.6,14.2,9.6,14.2,9.6C14.2,9.6,14.2,9.6,14.2,9.6
				C14.2,9.6,14.2,9.6,14.2,9.6c0.1,0,0.1,0,0.2,0c0,0,0,0,0,0c0.3,0,0.6-0.1,0.8-0.1c0,0,0,0,0,0c0,0,0,0,0,0
				c0.1-0.3,0.2-0.5,0.3-0.7c0.7-1.4,1.6-2.1,2.2-2.3c0.5-0.2,1.3-0.3,1.6,0.1c-0.1-0.2-0.3-0.4-0.5-0.5c0,0,0,0,0,0l0,0
				c-0.7-0.2-1.5-0.1-2,0.1c-0.5,0.2-1.1,0.5-1.8,1c0,0-0.1,0.1-0.1,0.1c0,0,0,0,0,0c0,0-0.1,0.1-0.1,0.1c0,0,0,0,0,0
				c-0.1,0.1-0.2,0.2-0.2,0.2c0,0,0,0,0,0c0,0-0.1,0.1-0.1,0.1c0,0,0,0,0,0c-0.1,0.1-0.1,0.2-0.2,0.2c0,0,0,0,0,0
				c0,0-0.1,0.1-0.1,0.1c0,0,0,0,0,0c0,0-0.1,0.1-0.1,0.1c0,0,0,0,0,0c0,0-0.1,0.1-0.1,0.1c0,0,0,0,0,0c0,0,0,0.1-0.1,0.1
				c0,0,0,0,0,0c0,0,0,0.1-0.1,0.1c0,0,0,0,0,0c0,0,0,0.1-0.1,0.1c0,0,0,0,0,0c0,0,0,0.1-0.1,0.1c0,0,0,0,0,0c0,0,0,0.1,0,0.1
				c0,0,0,0,0,0c0,0,0,0.1-0.1,0.1v0c0,0.1-0.1,0.2-0.2,0.3c0,0.1-0.1,0.1-0.1,0.2C13.6,9.6,13.7,9.6,14.2,9.6z"/>
		</g>
		<path class="st7" d="M20,6.9c-0.1-0.1-0.2-0.2-0.3-0.3c-0.2-0.2-0.5-0.4-0.9-0.5c0,0,0,0,0,0l0,0c0,0,0,0,0,0l0,0c0,0,0,0-0.1,0
			c0,0,0,0,0,0c0,0,0,0,0,0c0,0,0,0,0,0c0,0,0,0,0,0l0,0l0,0l0,0c0,0,0,0,0,0c0.3,0.1,0.6,0.4,0.6,0.8c0,0,0,0.1,0,0.2
			c0,0.2-0.1,0.4-0.2,0.5C19,7.8,18.8,8,18.5,8.2c-0.6,0.5-1.6,0.9-2.9,1.2c-0.1,0-0.3,0-0.4,0.1c0,0,0,0,0,0c0,0,0,0,0,0
			c-0.3,0-0.5,0.1-0.8,0.1c-0.7,0.1-0.7,0.1-1.1,0.1c0,0,0,0,0,0c0,0,0,0,0,0c-0.1,0-0.1,0-0.2,0c-0.6,0-2.9-0.1-3.5-0.1
			c-0.8,0-1.8,0.1-2.7,0.4c-1,0.3-1.9,0.9-2.5,1.7C4,12.1,3.8,12.6,3.7,13c-0.1,0.5,0,1,0.1,1.5c0,0.1,0,0.1,0.1,0.2
			c0.2,0.4,0.5,1,1.2,1.4v0l0,0c0,0,0,0,0,0c0,0,0,0,0,0c0,0,0,0,0,0c0,0,0,0,0,0c0,0,0,0,0,0c0,0,0,0,0,0c0,0,0,0,0,0c0,0,0,0,0,0
			c0,0,0,0,0,0c0,0,0,0,0,0c0,0,0,0,0,0c0,0,0,0,0,0c0,0,0,0,0,0c0,0,0,0,0,0c0,0,0,0,0,0c0,0,0,0,0,0c0,0,0,0,0,0c0,0,0,0,0,0
			c0,0,0,0,0,0c0,0,0,0,0,0c0,0,0,0,0,0c0,0,0,0,0,0c0,0,0,0,0,0c0,0,0,0,0,0c0,0,0,0,0,0c0,0,0,0,0,0c0,0,0,0,0,0c0,0,0,0,0,0h0
			c0,0,0,0,0,0l0,0c0,0,0,0,0,0c0,0,0,0,0,0c0,0,0,0,0,0c0,0,0,0,0,0c0,0,0,0,0,0c0,0,0,0,0,0c0,0,0,0,0,0c0,0,0,0,0,0c0,0,0,0,0,0
			c0,0,0,0,0,0c0,0,0,0,0,0c0,0,0,0,0,0c0,0,0,0,0,0c0,0,0,0,0,0c0,0,0,0,0,0c0,0,0,0,0,0c0,0,0,0,0,0l0,0c0,0,0,0,0,0h0
			c0,0,0,0,0,0c0,0,0,0,0,0c0,0,0,0,0,0c0,0,0,0,0,0c0.5,0,0.9,0,1.3-0.1c0,0,0,0,0,0c0,0,0,0,0,0c0,0,0,0,0,0c-0.1,0-0.2,0-0.3,0
			c0,0-0.1,0-0.1,0c0,0-0.1,0-0.1,0l0,0c-0.7,0-1.2-0.3-1.5-0.8c-0.1-0.2-0.2-0.4-0.2-0.6c0,0,0,0,0,0c0,0,0-0.1,0-0.1c0,0,0,0,0,0
			c0,0,0-0.1,0-0.1c0,0,0,0,0,0c0-0.1,0-0.2,0-0.4c0-0.6,0.2-1.2,0.7-1.9c0.6-0.8,1.4-1.3,2.3-1.6c1-0.4,2-0.5,2.8-0.5c0,0,0,0,0,0
			c0.1,0,0.1,0,0.2,0c0.2,0,0.3,0,0.4,0c0.4,0,0.8,0.1,1.1,0.1c0.1,0,0.3,0,0.4,0.1c0.1,0,0.1,0,0.2,0c0.6,0.1,1.2,0.2,1.9,0.3
			c0,0,0,0,0,0c0.2,0,0.4,0,0.6,0c0,0,0,0,0,0c2.4,0,4.6-1.1,4.7-2.9c0-0.1,0-0.1,0-0.2l0,0C20.1,7.3,20.1,7.1,20,6.9z"/>
		<path class="st8" d="M12.9,10.4c-0.3,0.7-2.1,4.5-5.1,5.6c-0.2,0.1-0.4,0.1-0.6,0.2c0,0,0,0,0,0c0,0,0,0,0,0c0,0,0,0,0,0
			c0,0,0,0,0,0c-0.4,0.1-0.8,0.1-1.3,0.1c0,0,0,0,0,0c0,0,0,0,0,0c0,0,0,0,0,0l0,0c0,0,0,0,0,0h0l0,0c0,0,0,0,0,0c0,0,0,0,0,0
			c0,0,0,0,0,0c0,0,0,0,0,0c0,0,0,0,0,0h0c-0.1,0-0.2,0-0.2,0l0,0c0,0,0,0,0,0h0c0,0,0,0,0,0c0,0,0,0,0,0c0,0,0,0,0,0c0,0,0,0,0,0
			c0,0,0,0,0,0c0,0,0,0,0,0c0,0-0.1,0-0.1,0c0,0,0,0,0,0c0,0,0,0,0,0c0,0,0,0,0,0c0,0,0,0,0,0c0,0,0,0,0,0c0,0,0,0,0,0c0,0,0,0,0,0
			c0,0,0,0,0,0c0,0,0,0,0,0c0,0,0,0,0,0c0,0,0,0,0,0c0,0,0,0,0,0c0,0,0,0,0,0c0,0,0,0,0,0c0,0,0,0,0,0c0,0,0,0,0,0c0,0,0,0,0,0
			c0,0,0,0,0,0c0,0,0,0,0,0c0,0,0,0,0,0l0,0c0,0,0,0,0,0l0,0c0.2,0.2,1.2,0.8,2.8,0.8c0,0,0,0,0,0c0,0,0,0,0.1,0
			c0.8,0,1.9-0.3,3.1-1c2-1.2,3-3.5,3.6-5.2c0,0,0-0.1,0-0.1c0,0,0,0,0,0C14.1,10.6,13.5,10.5,12.9,10.4z"/>
	</g>
</g>
</svg>
