<?xml version="1.0" encoding="UTF-8"?>
<svg width="19px" height="19px" viewBox="0 0 19 19" version="1.1" xmlns="http://www.w3.org/2000/svg" xmlns:xlink="http://www.w3.org/1999/xlink">
    <title>Tag icon</title>
    <g id="Product-Page" stroke="none" stroke-width="1" fill="none" fill-rule="evenodd">
        <g id="1.1-Product-2" transform="translate(-613.000000, -662.000000)" stroke="#000000">
            <g id="Product-information" transform="translate(601.000000, 203.000000)">
                <g id="Group-5" transform="translate(21.500000, 468.500000) rotate(-315.000000) translate(-21.500000, -468.500000) translate(17.000000, 461.000000)">
                    <path d="M6.06721735,0 L2.93278265,0 C2.69163655,0 2.46071244,0.0931283906 2.29019102,0.259041591 L0.266701084,2.22830018 C0.0957150232,2.3937613 0,2.61889693 0,2.85352622 L0,14.1157324 C0,14.6039783 0.407021167,15 0.908828085,15 L8.09117192,15 C8.59344347,15 9,14.6039783 9,14.1157324 L9,2.85352622 C9,2.61889693 8.90382034,2.3937613 8.73376355,2.22830018 L6.70980898,0.259041591 C6.53975219,0.0931283906 6.30836345,0 6.06721735,0 Z" id="Stroke-1"></path>
                    <path d="M5,3 C5,3.55235482 4.55225246,4 3.99977132,4 C3.44774754,4 3,3.55235482 3,3 C3,2.44764518 3.44774754,2 3.99977132,2 C4.55225246,2 5,2.44764518 5,3 Z" id="Stroke-3"></path>
                </g>
            </g>
        </g>
    </g>
</svg>